<?xml version="1.0" encoding="UTF-8"?>
<svg id="_圖層_2" data-name="圖層 2" xmlns="http://www.w3.org/2000/svg" viewBox="0 0 187.09 42.52">
  <defs>
    <style>
      .cls-1 {
        fill: #fff;
      }

      .cls-1, .cls-2, .cls-3, .cls-4 {
        stroke-width: 0px;
      }

      .cls-2 {
        fill: #939598;
      }

      .cls-3 {
        fill: #dbdbdb;
      }

      .cls-4 {
        fill: #ffb600;
      }
    </style>
  </defs>
  <g id="_圖層_1-2" data-name="圖層 1">
    <g>
      <path class="cls-2" d="m24.13.02c-1.25-.15-1.77.74-2.87.74s-1.62-.89-2.87-.74c-1.93.23-2.55,1.92-2.29,3.66.34,2.23,1.31,2.69,1.66,6.19.12,1.15.25,1.95,1.18,1.95s1.1-1.13,1.19-2.19c.09-.94.5-1.84,1.11-1.84s1.03.89,1.12,1.84c.1,1.06.25,2.19,1.19,2.19s1.07-.8,1.18-1.95c.35-3.5,1.33-3.96,1.66-6.19.26-1.74-.36-3.43-2.29-3.66Z"/>
      <path class="cls-2" d="m.02,18.39c-.15,1.25.74,1.77.74,2.87,0,1.1-.89,1.62-.74,2.87.23,1.93,1.92,2.55,3.66,2.29,2.23-.34,2.69-1.31,6.19-1.66,1.15-.12,1.95-.25,1.95-1.18,0-.94-1.13-1.1-2.19-1.19-.94-.09-1.84-.5-1.84-1.11,0-.61.89-1.03,1.84-1.12,1.06-.1,2.19-.25,2.19-1.19,0-.93-.8-1.07-1.95-1.18-3.5-.35-3.96-1.33-6.19-1.66-1.74-.26-3.43.36-3.66,2.29Z"/>
      <path class="cls-2" d="m18.39,42.5c1.25.15,1.77-.74,2.87-.74s1.62.89,2.87.74c1.93-.23,2.55-1.92,2.29-3.66-.34-2.23-1.31-2.69-1.66-6.19-.12-1.15-.25-1.95-1.18-1.95s-1.1,1.13-1.19,2.19c-.09.94-.5,1.84-1.11,1.84s-1.03-.89-1.12-1.84c-.1-1.06-.25-2.19-1.19-2.19s-1.07.8-1.18,1.95c-.35,3.5-1.33,3.96-1.66,6.19-.26,1.74.36,3.43,2.29,3.66Z"/>
      <path class="cls-2" d="m42.5,24.13c.15-1.25-.74-1.77-.74-2.87s.89-1.62.74-2.87c-.23-1.93-1.92-2.55-3.66-2.29-2.23.34-2.69,1.31-6.19,1.66-1.15.12-1.95.25-1.95,1.18s1.13,1.1,2.19,1.19c.94.09,1.84.5,1.84,1.11s-.89,1.03-1.84,1.12c-1.06.1-2.19.25-2.19,1.19s.8,1.07,1.95,1.18c3.5.35,3.96,1.33,6.19,1.66,1.74.26,3.43-.36,3.66-2.29Z"/>
    </g>
    <g>
      <path class="cls-4" d="m8.27,4.21c-.99.78-.72,1.78-1.5,2.55s-1.77.51-2.55,1.5c-1.2,1.53-.45,3.16.97,4.2,1.82,1.34,2.83.97,5.56,3.2.9.73,1.55,1.2,2.21.54s-.02-1.57-.7-2.39c-.61-.73-.94-1.65-.51-2.09s1.36-.1,2.09.51c.82.68,1.73,1.37,2.39.7.66-.66.19-1.32-.54-2.21-2.23-2.73-1.86-3.74-3.2-5.56-1.04-1.42-2.68-2.17-4.2-.97Z"/>
      <path class="cls-4" d="m4.21,34.25c.78.99,1.78.72,2.55,1.5s.51,1.77,1.5,2.55c1.53,1.2,3.16.45,4.2-.97,1.34-1.82.97-2.83,3.2-5.56.73-.9,1.2-1.55.54-2.21s-1.57.02-2.39.7c-.73.61-1.65.94-2.09.51s-.1-1.36.51-2.09c.68-.82,1.37-1.73.7-2.39s-1.32-.19-2.21.54c-2.73,2.23-3.74,1.86-5.56,3.2-1.42,1.04-2.17,2.68-.97,4.2Z"/>
      <path class="cls-4" d="m34.25,38.31c.99-.78.72-1.78,1.5-2.55s1.77-.51,2.55-1.5c1.2-1.53.45-3.16-.97-4.2-1.82-1.34-2.83-.97-5.56-3.2-.9-.73-1.55-1.2-2.21-.54s.02,1.57.7,2.39c.61.73.94,1.65.51,2.09s-1.36.1-2.09-.51c-.82-.68-1.73-1.37-2.39-.7s-.19,1.32.54,2.21c2.23,2.73,1.86,3.74,3.2,5.56,1.04,1.42,2.68,2.17,4.2.97Z"/>
      <path class="cls-4" d="m38.31,8.27c-.78-.99-1.78-.72-2.55-1.5s-.51-1.77-1.5-2.55c-1.53-1.2-3.16-.45-4.2.97-1.34,1.82-.97,2.83-3.2,5.56-.73.9-1.2,1.55-.54,2.21s1.57-.02,2.39-.7c.73-.61,1.65-.94,2.09-.51s.1,1.36-.51,2.09c-.68.82-1.37,1.73-.7,2.39s1.32.19,2.21-.54c2.73-2.23,3.74-1.86,5.56-3.2,1.42-1.04,2.17-2.68.97-4.2Z"/>
    </g>
    <g>
      <g>
        <path class="cls-1" d="m143.65,12.3v-2.34h2.72v-1.44h3.26v1.44h2.72v2.34h-8.69Zm.34,16.26v-7.46h8.01v4.31c.06,2.16-.99,3.2-3.15,3.15h-4.87Zm.27-8.99v-2.16h7.38v2.16h-7.38Zm.09-3.68v-2.16h7.29v2.16h-7.29Zm2.27,10.6h1.67c.72.06,1.08-.33,1.08-1.17v-1.98h-2.75v3.15Z"/>
        <g>
          <path class="cls-1" d="m153,19.62v-1.8c2.15-.84,3.74-2.19,4.79-4.04h2.96c-.87-.72-1.65-1.53-2.35-2.43-1.39,1.92-3.45,3.58-6.08,4.44v-2.16c2.11-1.34,3.2-2.91,4.42-5.43h3.22c1.25,2.38,2.4,3.93,4.68,5.52v2.07c-1.74-.48-2.62-1.08-3.73-1.92-1.28,2.94-3.92,4.85-7.92,5.75Z"/>
          <path class="cls-1" d="m152.32,28.89v-2.07c4.08-.98,7.28-3.03,9.2-6.03h3.14c-2.01,4.45-5.54,6.78-12.33,8.09Z"/>
          <path class="cls-1" d="m152.71,24.21v-1.89c3.25-1.08,5.66-2.84,7.23-5.3h3.14c-1.74,3.72-5.2,6.11-10.36,7.19Z"/>
        </g>
      </g>
      <path class="cls-1" d="m52.55,10.78v-1.8h10.69c2.28.06,4.64-.18,7.1-.72v1.89c-1.98.48-4.13.69-6.47.63h-.72v1.17h8.72v1.71h-8.72v1.08h6.74v4.4c.12,2.1-.81,3.09-2.79,2.97h-3.95v1.26h7.37v1.71h-7.37v1.35h8.72v1.62h-20.85v-1.62h8.72v-1.35h-7.37v-1.71h7.37v-1.26h-6.74v-7.37h6.74v-1.08h-8.72v-1.71h8.72v-1.17h-7.19Zm3.5,5.66v1.26h3.68v-1.26h-3.68Zm0,3.95h3.68v-1.17h-3.68v1.17Zm10.87-3.95h-3.77v1.26h3.77v-1.26Zm-1.08,3.95c.78.06,1.14-.33,1.08-1.17h-3.77v1.17h2.7Z"/>
      <path class="cls-1" d="m166.15,28.84v-2.16c.9-1.14,1.32-2.66,1.26-4.58v-13.03h4.13c1.44,0,2.88-.24,4.31-.72v2.34c-1.32.36-2.58.54-3.77.54h-1.62v2.43h4.85v5.57c.06,1.98-.84,2.94-2.7,2.88h-2.16c0,3.18-1.44,5.42-4.31,6.74Zm6.38-13.03h-2.07v4.22h1.08c.72.06,1.05-.3.99-1.08v-3.15Zm2.79,13.03v-2.25c.96-1.02,1.41-2.55,1.35-4.58v-12.94h5.84c1.44,0,2.88-.24,4.31-.72v2.34c-1.26.42-2.52.63-3.77.63h-3.32v3.5h7.37v2.16h-2.25v11.5h-3.06v-11.5h-2.07v4.22c.18,3.72-1.29,6.26-4.4,7.64Z"/>
      <path class="cls-1" d="m74.57,23.45v-2.25h8.09v-1.35h3.77v1.35h8v2.25h-7.1c1.26,1.44,3.77,2.52,7.55,3.23v1.98c-4.97-.54-8.42-1.74-10.33-3.59-1.92,1.86-5.36,3.06-10.33,3.59v-1.98c3.77-.72,6.29-1.8,7.55-3.23h-7.19Zm.18-11.59v-2.16h3.95c0-.06-.03-.18-.09-.36-.12-.48-.18-.87-.18-1.17h3.5c.06.54.18,1.05.36,1.53h4.4c.18-.48.3-.99.36-1.53h3.59c-.06.6-.18,1.11-.36,1.53h4.04v2.16h-8.09v1.53h7.01v2.16h-7.01v1.62h8.54v2.16h-20.49v-2.16h8.36v-1.62h-6.65v-2.16h6.65v-1.53h-7.91Z"/>
      <path class="cls-1" d="m97.84,11.31v-2.34h19.68v2.34h-4.31v5.21h4.76v2.34h-4.76v6.56c.06,2.16-1.05,3.2-3.32,3.15h-3.06v-2.07h1.71c.78,0,1.17-.39,1.17-1.17v-6.47h-.36c-2.22,4.07-6.26,7.1-12.13,9.08v-1.98c4.01-2.04,6.8-4.4,8.36-7.1h-6.92v-2.43c.6-1.32.99-2.66,1.17-4.04h3.41c-.3,1.56-.81,2.94-1.53,4.13h8v-5.21h-11.86Z"/>
      <g>
        <path class="cls-1" d="m131.83,11.29v1.24h.04c2.39-.2,3.68-1.13,3.63-2.64v-.4h1.74v1.14c-.02.63.12,1.1.43,1.41.29.29.72.43,1.29.43.04,0,.08,0,.12,0h2.08v-1.5h-1.03c-.23.02-.41-.02-.52-.13-.11-.11-.15-.28-.13-.52v-2.46h-6.23v1.96c.07.65-.44,1.18-1.4,1.45h-.02Z"/>
        <path class="cls-1" d="m141.31,21.37v-1.62h-21v1.62h6.91v.41h-5.59v7.35h15.89c.05,0,.11,0,.16,0,.87,0,1.5-.19,1.88-.55.28-.27.42-.65.42-1.12v-5.68h-5.46v-.41h6.79Zm-17.49,3.16v-1.19h3.41c0,.17-.07.33-.21.46-.65.66-2.57.72-3.2.72Zm10.74,1.17h3.25v.18h-12.47c2.03-.19,3.91-.83,3.94-2.54h3.13v.22c.04,1.42.76,2.14,2.15,2.14Zm.15-1.72c-.13-.13-.19-.35-.18-.64h3.28v.8h-2.51c-.27.02-.47-.03-.6-.16Zm-5.42-2.2v-.41h3.13v.41h-3.13Zm-5.46,5.59h13.99c0,.11-.03.18-.08.23-.09.08-.25.1-.48.1-.1,0-.21,0-.33,0h-13.09v-.32Z"/>
        <path class="cls-1" d="m140.75,14.17v-1.52s-8.61,0-8.61,0v1.6h6.04c-.41.94-1.15,1.42-1.6,1.71-.56-.32-1.14-.7-1.63-1.48v-.02h-2.57l.02.05c.56,1.13,1.39,1.78,2.12,2.35.13.1.26.2.38.3-.84.52-1.7.83-2.56.94h-.03v1.48h.04c1.29-.09,2.69-.5,4.28-1.27,1.19.67,2.87,1.13,4.62,1.28h.04s0-1.48,0-1.48h-.03c-1.29-.14-2.49-.69-2.89-.9.97-.81,1.77-1.56,2.37-3.06Z"/>
        <path class="cls-1" d="m122.52,19.43s.08,0,.12,0h9.44v-1.5h-8.38c-.36.02-.63-.05-.8-.22s-.24-.44-.22-.8v-7.29h9.22v-1.62h-11.58v9.16c-.02.76.16,1.34.54,1.72.37.37.93.56,1.68.56Z"/>
        <path class="cls-1" d="m123.15,16.36h-.03v1.31h.03c1.91,0,3.64-.66,4.63-1.78,1.35,1.29,2.56,1.63,4.19,1.78h.04s0-1.36,0-1.36h-.02c-1.02-.36-2.07-.71-2.83-1.65h2.73v-1.56h-3.08v-.99h2.46v-1.56h-4.91c.02-.08.04-.14.05-.19.02-.09.04-.17.12-.4v-.04s-2.17,0-2.17,0v.03c-.24.95-.65,1.29-1.41,1.66h-.02v1.18h.03c.95,0,1.81-.24,2.43-.68h1.11v.99h-3.58v1.56h3.22c-.84.89-1.4,1.33-3.01,1.7Z"/>
      </g>
    </g>
    <g>
      <path class="cls-3" d="m53.29,33.67h-2.26v8.52h2.26c1.14,0,2.08-.12,2.98-.64,1.38-.79,2.11-2.05,2.11-3.62,0-2.55-1.81-4.26-5.09-4.26Zm.19,6.69h-.45v-4.87h.45c1.83,0,2.84.96,2.84,2.44s-1.01,2.43-2.84,2.43Z"/>
      <path class="cls-3" d="m62.8,33.41l-4.34,8.79h2.05l.55-1.24h3.45l.54,1.24h2.13l-4.25-8.79h-.13Zm-1.16,6.08l1.13-2.67,1.11,2.67h-2.24Z"/>
      <rect class="cls-3" x="67.84" y="33.67" width="2.03" height="8.52"/>
      <polygon class="cls-3" points="77.36 38.37 72.05 33.4 71.86 33.4 71.86 42.2 73.74 42.2 73.74 37.55 79.06 42.52 79.24 42.52 79.24 33.67 77.36 33.67 77.36 38.37"/>
      <polygon class="cls-3" points="91.46 36.37 89.68 33.67 87.65 33.67 87.22 33.67 80.21 33.67 80.21 35.46 82.92 35.46 82.92 42.2 84.95 42.2 84.95 35.46 87.65 35.46 87.65 34.3 90.27 38.15 90.27 42.2 92.29 42.2 92.29 38.07 95.57 33.67 93.42 33.67 91.46 36.37"/>
      <path class="cls-3" d="m101.81,33.67h-2.26v8.52h2.26c1.14,0,2.08-.12,2.98-.64,1.38-.79,2.11-2.05,2.11-3.62,0-2.55-1.81-4.26-5.09-4.26Zm.19,6.69h-.45v-4.87h.45c1.83,0,2.84.96,2.84,2.44s-1.01,2.43-2.84,2.43Z"/>
      <polygon class="cls-3" points="110.3 38.72 113.1 38.72 113.1 36.97 110.3 36.97 110.3 35.43 113.57 35.43 113.57 33.67 108.32 33.67 108.32 42.2 113.62 42.2 113.62 40.4 110.3 40.4 110.3 38.72"/>
      <polygon class="cls-3" points="120.67 38.37 115.36 33.4 115.17 33.4 115.17 42.2 117.04 42.2 117.04 37.55 122.36 42.52 122.54 42.52 122.54 33.67 120.67 33.67 120.67 38.37"/>
      <polygon class="cls-3" points="130.95 33.67 123.52 33.67 123.52 35.46 126.22 35.46 126.22 42.2 128.26 42.2 128.26 35.46 130.95 35.46 130.95 33.67"/>
      <path class="cls-3" d="m134.04,33.41l-4.34,8.79h2.05l.55-1.24h3.45l.54,1.24h2.13l-4.25-8.79h-.13Zm-1.16,6.08l1.13-2.67,1.11,2.67h-2.24Z"/>
      <polygon class="cls-3" points="141.09 33.67 139.06 33.67 139.06 42.2 144.42 42.2 144.42 40.37 141.09 40.37 141.09 33.67"/>
      <path class="cls-3" d="m150.42,37.91c0-1.56,1.02-2.66,2.46-2.66.84,0,1.59.37,2.31,1.12l.22-2.18c-.79-.54-1.66-.81-2.61-.81-1.22,0-2.33.47-3.16,1.31-.82.84-1.26,1.97-1.26,3.24,0,1.48.61,2.76,1.7,3.61.77.6,1.71.93,2.72.93.93,0,1.82-.26,2.54-.76l.13-2.26c-.85.72-1.71,1.08-2.58,1.08-1.46,0-2.46-1.06-2.46-2.62Z"/>
      <polygon class="cls-3" points="158.8 33.67 156.77 33.67 156.77 42.2 162.12 42.2 162.12 40.37 158.8 40.37 158.8 33.67"/>
      <rect class="cls-3" x="163.14" y="33.67" width="2.03" height="8.52"/>
      <polygon class="cls-3" points="172.66 38.37 167.35 33.4 167.16 33.4 167.16 42.2 169.04 42.2 169.04 37.55 174.36 42.52 174.54 42.52 174.54 33.67 172.66 33.67 172.66 38.37"/>
      <rect class="cls-3" x="176.51" y="33.67" width="2.03" height="8.52"/>
      <path class="cls-3" d="m184.51,40.53c-1.46,0-2.46-1.06-2.46-2.62s1.02-2.66,2.46-2.66c.84,0,1.59.37,2.31,1.12l.22-2.18c-.79-.54-1.66-.81-2.61-.81-1.22,0-2.33.47-3.17,1.31-.82.84-1.26,1.97-1.26,3.24,0,1.48.61,2.76,1.7,3.61.77.6,1.71.93,2.72.93.93,0,1.82-.26,2.54-.76l.13-2.26c-.85.72-1.71,1.08-2.58,1.08Z"/>
    </g>
  </g>
</svg>