<?xml version="1.0" encoding="UTF-8"?>
<svg id="_圖層_2" data-name="圖層 2" xmlns="http://www.w3.org/2000/svg" viewBox="0 0 124 499">
  <defs>
    <style>
      .cls-1 {
        fill: #a6d9ea;
      }

      .cls-1, .cls-2 {
        stroke-width: 0px;
      }

      .cls-2 {
        fill: #004555;
      }
    </style>
  </defs>
  <g id="_圖層_1-2" data-name="圖層 1">
    <path class="cls-1" d="m124,0H56C25.07,0,0,25.07,0,56v387c0,30.93,25.07,56,56,56h68V0Z"/>
    <g>
      <path class="cls-2" d="m63.22,156.58c-2.16,0-3.24-1.08-3.24-3.24v-12.53h-19.3c-1.15,0-1.73.58-1.73,1.73v4.82c0,1.97-.98,2.95-2.95,2.95s-2.95-.98-2.95-2.95v-6.48c0-1.39.43-2.52,1.3-3.38.86-.86,1.99-1.3,3.38-1.3h22.25v-3.67h-20.02c-1.68,0-2.52-.86-2.52-2.59s.84-2.52,2.52-2.52h46.8c1.68,0,2.52.84,2.52,2.52s-.84,2.59-2.52,2.59h-20.3v3.67h22.75c1.39,0,2.52.43,3.38,1.3.86.86,1.3,1.99,1.3,3.38v6.41c0,2.02-1.01,3.02-3.02,3.02s-3.1-1.01-3.1-3.02v-4.75c0-1.15-.58-1.73-1.73-1.73h-19.58v12.53c0,2.16-1.08,3.24-3.24,3.24Zm7.63,33.62c-4.42,0-7.38-.55-8.89-1.66-1.51-1.1-2.27-3.26-2.27-6.48v-1.37h-15.7c-1.39,0-2.52-.43-3.38-1.3-.86-.86-1.3-1.99-1.3-3.38v-12.6c0-1.39.43-2.52,1.3-3.38.86-.86,1.99-1.3,3.38-1.3h39.02c1.39,0,2.52.43,3.38,1.3.86.86,1.3,1.99,1.3,3.38v12.6c0,1.39-.43,2.52-1.3,3.38-.86.86-1.99,1.3-3.38,1.3h-16.99v1.37c0,1.25.32,2.05.97,2.41.65.36,2.08.54,4.28.54h14.83c1.25,0,2.16-.2,2.74-.61.58-.41,1.03-1.19,1.37-2.34.38-3.31,1.49-4.51,3.31-3.6h.07l.07.07c1.82.48,2.52,2.16,2.09,5.04-.58,2.54-1.52,4.28-2.84,5.22-1.32.94-3.47,1.4-6.44,1.4h-15.62Zm-28.01-35.06c-1.3,0-1.94-.65-1.94-1.94s.65-1.94,1.94-1.94h12.1c1.3,0,1.94.65,1.94,1.94s-.65,1.94-1.94,1.94h-12.1Zm1.44-7.2c-1.3,0-1.94-.65-1.94-1.94s.65-1.94,1.94-1.94h10.58c1.3,0,1.94.65,1.94,1.94s-.65,1.94-1.94,1.94h-10.58Zm1.37,19.73h14.04v-4.25h-12.31c-1.15,0-1.73.58-1.73,1.73v2.52Zm1.73,8.28h12.31v-4.1h-14.04v2.38c0,1.15.58,1.73,1.73,1.73Zm18.65-8.28h15.19v-2.52c0-1.15-.58-1.73-1.73-1.73h-13.46v4.25Zm0,8.28h13.46c1.15,0,1.73-.58,1.73-1.73v-2.38h-15.19v4.1Zm5.62-28.01c-1.3,0-1.94-.65-1.94-1.94s.65-1.94,1.94-1.94h10.73c1.3,0,1.94.65,1.94,1.94s-.65,1.94-1.94,1.94h-10.73Zm0,7.2c-1.3,0-1.94-.65-1.94-1.94s.65-1.94,1.94-1.94h12.53c1.3,0,1.94.65,1.94,1.94s-.65,1.94-1.94,1.94h-12.53Z"/>
      <path class="cls-2" d="m33.34,228.26c-1.78,0-2.66-.89-2.66-2.66s.89-2.66,2.66-2.66h21.24c1.78,0,2.66.89,2.66,2.66s-.89,2.66-2.66,2.66h-21.24Zm5.18,45.5c-1.39,0-2.52-.43-3.38-1.3-.86-.86-1.3-1.99-1.3-3.38v-11.74c0-1.39.43-2.52,1.3-3.38.86-.86,1.99-1.3,3.38-1.3h11.95c1.39,0,2.52.43,3.38,1.3.86.86,1.3,1.99,1.3,3.38v11.74c0,1.39-.43,2.52-1.3,3.38-.86.86-1.99,1.3-3.38,1.3h-11.95Zm-1.94-35.64c-1.73,0-2.59-.86-2.59-2.59s.86-2.59,2.59-2.59h15.7c1.73,0,2.59.86,2.59,2.59s-.86,2.59-2.59,2.59h-15.7Zm0,9.79c-1.73,0-2.59-.86-2.59-2.59s.86-2.59,2.59-2.59h15.7c1.73,0,2.59.86,2.59,2.59s-.86,2.59-2.59,2.59h-15.7Zm.43-29.45c-1.73,0-2.59-.89-2.59-2.66s.86-2.59,2.59-2.59h15.19c1.73,0,2.59.86,2.59,2.59s-.86,2.66-2.59,2.66h-15.19Zm4.25,49.97h6.48c1.15,0,1.73-.58,1.73-1.73v-6.91c0-1.15-.58-1.73-1.73-1.73h-6.48c-1.15,0-1.73.58-1.73,1.73v6.91c0,1.15.58,1.73,1.73,1.73Zm25.06,4.97c-1.39,0-2.52-.43-3.38-1.3-.86-.86-1.3-1.99-1.3-3.38v-15.26c0-1.39.43-2.52,1.3-3.38.86-.86,1.99-1.3,3.38-1.3h7.42v-10.94h-12.82c-2.11,0-3.17-1.06-3.17-3.17s1.06-3.17,3.17-3.17h12.82v-10.15c-.86.1-2.16.24-3.89.43-2.69.34-4.68.55-5.98.65-1.87.14-3.07-.62-3.6-2.3-.67-2.11.22-3.29,2.66-3.53,9.94-1.06,18.12-2.45,24.55-4.18.82-.24,1.51-.24,2.09,0,.48.24,1.03.72,1.66,1.44,1.01,1.2,1.43,2.16,1.26,2.88-.17.72-.97,1.27-2.41,1.66-2.83.67-6.02,1.32-9.58,1.94v11.16h12.82c2.11,0,3.17,1.06,3.17,3.17s-1.06,3.17-3.17,3.17h-12.82v10.94h8.14c1.39,0,2.52.43,3.38,1.3.86.86,1.3,1.99,1.3,3.38v15.26c0,1.39-.43,2.52-1.3,3.38-.86.86-1.99,1.3-3.38,1.3h-22.32Zm3.38-6.05h15.34c1.15,0,1.73-.58,1.73-1.73v-9.07c0-1.15-.58-1.73-1.73-1.73h-15.34c-1.15,0-1.73.58-1.73,1.73v9.07c0,1.15.58,1.73,1.73,1.73Z"/>
      <path class="cls-2" d="m33.98,360.7c-.82-2.54.5-3.77,3.96-3.67.48,0,1.08-.02,1.8-.07h.65c.82,0,1.22-.36,1.22-1.08v-26.5h-8.14c-1.97,0-2.95-1.01-2.95-3.02s.98-2.95,2.95-2.95h13.9c-3.17-2.69-6.79-5.21-10.87-7.56-1.87-1.01-2.14-2.35-.79-4.03.96-1.25,2.16-1.51,3.6-.79.19.1.5.26.94.5,1.68,1.01,2.95,1.75,3.82,2.23,2.26-2.35,4.25-4.78,5.98-7.27h-15.12c-1.92,0-2.88-.98-2.88-2.95s.96-2.88,2.88-2.88h18.94c1.78,0,2.93.5,3.46,1.51.53,1.01.36,2.45-.5,4.32-2.11,3.74-4.78,7.22-7.99,10.44.1.1.26.22.5.36,1.25.96,2.14,1.66,2.66,2.09,1.2,1.1,1.3,2.4.29,3.89l-.14.14h4.9c1.34,0,2.3.41,2.88,1.22.58.82.65,1.94.22,3.38-1.2,4.18-2.38,7.75-3.53,10.73-.48,1.1-1.46,1.46-2.95,1.08-.96-.24-1.6-.58-1.91-1.01-.31-.43-.3-1.08.04-1.94l.07-.14c1.01-3.17,1.75-5.62,2.23-7.34h-6.05v26.57c0,1.73-.19,3.05-.58,3.96-.43,1.01-1.2,1.78-2.3,2.3-1.3.58-3.5.91-6.62,1.01-2.5.1-4.01-.74-4.54-2.52Zm23.11,1.37c-1.87-1.87-1.46-3.36,1.22-4.46,3.79-1.87,6.84-3.74,9.14-5.62,1.15-1.1,2.54-1.13,4.18-.07,2.11,1.34,2.28,2.78.5,4.32-1.49,1.15-3.05,2.21-4.68,3.17-2.06,1.3-4.22,2.42-6.48,3.38-1.49.62-2.78.38-3.89-.72Zm9.86-12.46c-1.39,0-2.52-.43-3.38-1.3-.86-.86-1.3-1.99-1.3-3.38v-28.08c0-1.39.43-2.52,1.3-3.38.86-.86,1.99-1.3,3.38-1.3h5.9c.05-.34.14-.89.29-1.66.38-1.92.65-3.36.79-4.32h-11.45c-1.87,0-2.81-.96-2.81-2.88s.94-2.81,2.81-2.81h30.24c1.87,0,2.81.94,2.81,2.81s-.94,2.88-2.81,2.88h-11.45c-.19.62-.48,1.56-.86,2.81-.48,1.44-.82,2.5-1.01,3.17h9.22c1.39,0,2.52.43,3.38,1.3.86.86,1.3,1.99,1.3,3.38v28.08c0,1.39-.43,2.52-1.3,3.38s-1.99,1.3-3.38,1.3h-21.67Zm1.44-26.5h18.58v-4.25c0-1.15-.58-1.73-1.73-1.73h-15.12c-1.15,0-1.73.58-1.73,1.73v4.25Zm0,10.73h18.58v-6.05h-18.58v6.05Zm1.73,10.73h15.12c1.15,0,1.73-.58,1.73-1.73v-4.32h-18.58v4.32c0,1.15.58,1.73,1.73,1.73Zm19.94,17.35c-.91-.86-2.09-1.85-3.53-2.95-.29-.19-.7-.5-1.22-.94-1.1-.86-1.92-1.49-2.45-1.87-2.02-1.34-1.97-2.74.14-4.18,1.25-.82,2.42-.86,3.53-.14,2.88,1.82,5.66,3.82,8.35,5.98.82.77,1.18,1.49,1.08,2.16-.14.58-.7,1.22-1.66,1.94-1.58,1.15-3,1.15-4.25,0Z"/>
      <path class="cls-2" d="m34.49,442.82c-.58.22-1.33.1-2.27-.36-.94-.46-1.51-.96-1.73-1.51-.22-.55-.13-1.28.25-2.2,1.1-2.88,2.02-6.62,2.74-11.23.33-2.11,1.46-3,3.38-2.66,1.78.29,2.54,1.37,2.3,3.24-.48,2.79-.98,5.21-1.51,7.27-.53,2.16-1.1,4.06-1.73,5.69-.38.96-.86,1.55-1.44,1.76Zm10.51,6.52c-1.97,0-2.95-.98-2.95-2.95v-26.35c-3.84.19-6.65.36-8.42.5-1.78.05-2.76-.86-2.95-2.74-.19-2.02.74-3.05,2.81-3.1l1.87-.07c1.39-1.73,2.76-3.6,4.1-5.62-1.73-2.49-4.13-5.28-7.2-8.35-1.15-1.15-1.2-2.47-.14-3.96.48-.67,1.02-1.07,1.62-1.19.6-.12,1.24.11,1.91.68,1.82-3.31,3.43-6.72,4.82-10.22.33-1.01.82-1.64,1.44-1.91s1.44-.2,2.45.18c2.02.72,2.52,2.11,1.51,4.18-2.88,5.38-5.06,9.17-6.55,11.38,1.44,1.49,2.62,2.88,3.53,4.18,2.35-3.65,4.34-7.03,5.98-10.15.82-1.58,2.11-1.99,3.89-1.22,1.97.87,2.4,2.19,1.3,3.96-4.32,6.77-8.5,12.7-12.53,17.78l9.5-.36c-.34-.77-.89-1.87-1.66-3.31-.96-1.68-.55-2.88,1.22-3.6,1.49-.67,2.64-.31,3.46,1.08,2.3,4.13,3.98,7.73,5.04,10.8.19.77.16,1.37-.11,1.8-.26.43-.78.84-1.55,1.22-1.92.91-3.17.38-3.74-1.58-.14-.38-.29-.74-.43-1.08l-5.26.36v26.71c0,1.97-.98,2.95-2.95,2.95Zm9.43-10.73c-.58-.29-.96-.94-1.15-1.94-.1-.24-.22-.62-.36-1.15-.34-1.25-.6-2.16-.79-2.74-.67-2.11-1.2-3.67-1.58-4.68-.72-1.58-.17-2.69,1.66-3.31,1.54-.53,2.62-.05,3.24,1.44,1.34,3.31,2.42,6.38,3.24,9.22.33,1.49-.29,2.5-1.87,3.02-1.01.38-1.8.43-2.38.14Zm21.89,10.51c-1.25-.05-2.28-.38-3.1-1.01-.82-.62-1.32-1.46-1.51-2.52v-.07l-.07-.14c-1.01-2.06-.12-3,2.66-2.81,1.92.1,4.08.14,6.48.14,1.34,0,2.35-.41,3.02-1.22,1.1-1.1,1.98-4.38,2.63-9.83.65-5.45,1.19-14.17,1.62-26.17.05-1.34-.05-2.26-.29-2.74-.24-.43-.67-.65-1.3-.65h-20.02c-1.25,2.4-2.66,4.71-4.25,6.91-.72.96-1.45,1.5-2.2,1.62-.75.12-1.62-.16-2.63-.83-1.1-.77-1.72-1.51-1.84-2.23-.12-.72.25-1.61,1.12-2.66,3.7-4.9,6.7-11.02,9-18.36.67-2.3,2.11-3.19,4.32-2.66,2.26.58,3.05,1.97,2.38,4.18-1.01,3.02-1.97,5.57-2.88,7.63h22.25c.96,0,1.7.26,2.23.79.53.53.79,1.27.79,2.23v.21c-.62,16.51-1.27,27.79-1.94,33.84-.72,6.77-1.8,11.04-3.24,12.82-.77,1.15-1.66,1.97-2.66,2.45-.91.43-2.11.72-3.6.86-1.68.24-4.01.31-6.98.22Zm-2.92-19.22c-.7-.19-1.26-.84-1.69-1.94-.82-1.73-1.66-3.38-2.52-4.97-1.25-2.21-2.47-4.2-3.67-5.98-1.2-1.78-.82-3.14,1.15-4.1,1.58-.82,2.88-.53,3.89.86,3.02,4.03,5.42,8.02,7.2,11.95.38.86.43,1.56.14,2.09s-.89,1.03-1.8,1.51c-1.1.58-2,.77-2.7.58Z"/>
    </g>
    <g>
      <path class="cls-2" d="m59.13,65.35c.48-.48.79-1.15.79-1.87s-.3-1.39-.79-1.87l-8.34-8.28c-.48-.48-1.15-.79-1.81-.79s-1.39.3-1.87.79l-.91.91,12.02,12.02.91-.91Z"/>
      <path class="cls-2" d="m71.28,86.68c-.24.24-.6.36-.91.36s-.66-.12-.91-.36l-14.99-14.93c-.24-.24-.36-.6-.36-.91s.12-.66.36-.91l1.87-1.81-12.02-12.02c-.79.79-1.51,1.51-1.99,1.99-1.21,1.15-1.93,2.66-1.99,4.29-.18,2.72.48,5.32,1.39,7.86.97,2.24,2.24,4.35,3.63,6.34,4.95,7.43,11.18,13.9,18.43,19.03,1.21.91,2.48,1.69,3.81,2.42,3.02,1.51,6.22,2.6,9.67,2.84,2.3.18,4.59-.73,6.16-2.42l1.63-1.63-11.96-12.02-1.81,1.87Z"/>
      <path class="cls-2" d="m87.83,90.36l-8.34-8.34c-.48-.48-1.15-.79-1.87-.79s-1.39.3-1.87.79l-.91.97,12.02,12.02.91-.91c.48-.48.79-1.15.79-1.87s-.24-1.39-.73-1.87Z"/>
    </g>
  </g>
</svg>