<?xml version="1.0" encoding="UTF-8"?>
<svg id="_圖層_2" data-name="圖層 2" xmlns="http://www.w3.org/2000/svg" viewBox="0 0 148.25 225.55">
  <defs>
    <style>
      .cls-1 {
        fill: #f3d188;
        opacity: .88;
      }

      .cls-1, .cls-2 {
        stroke-width: 0px;
      }

      .cls-2 {
        fill: #6c542e;
      }
    </style>
  </defs>
  <g id="_圖層_1-2" data-name="圖層 1">
    <path class="cls-1" d="m113.79,37.65H36.76C16.46,37.65,0,53.86,0,73.86v79.46c0,20,16.46,36.21,36.76,36.21h80.78c14.78,6.99,26.1,20.07,30.71,36.02V0c-5,17.27-17.86,31.2-34.46,37.65Z"/>
    <g>
      <path class="cls-2" d="m66.72,91.35c.96-.79,1.63-1.95,1.75-3.26s-.31-2.58-1.1-3.54l-13.69-16.49c-.79-.96-1.95-1.63-3.15-1.74s-2.58.31-3.54,1.1l-1.8,1.49,19.73,23.94,1.8-1.49Z"/>
      <path class="cls-2" d="m85.04,132.22c-.48.4-1.16.55-1.71.5s-1.19-.34-1.58-.82l-24.6-29.73c-.4-.48-.55-1.16-.5-1.71s.34-1.19.82-1.58l3.72-2.96-19.73-23.94c-1.56,1.29-3.01,2.48-3.97,3.27-2.4,1.87-3.98,4.49-4.37,7.44-.81,4.91-.05,9.74,1.15,14.51,1.36,4.23,3.3,8.29,5.47,12.16,7.7,14.37,17.87,27.2,30.14,37.8,2.04,1.86,4.2,3.51,6.49,5.06,5.22,3.27,10.85,5.81,17.06,6.85,4.14.73,8.47-.51,11.62-3.31l3.25-2.68-19.62-23.93-3.62,3.08Z"/>
      <path class="cls-2" d="m114.46,141.81l-13.68-16.6c-.79-.96-1.95-1.63-3.26-1.75s-2.58.31-3.54,1.1l-1.82,1.6,19.73,23.94,1.8-1.49c.96-.79,1.63-1.95,1.75-3.26s-.2-2.57-.99-3.53Z"/>
    </g>
  </g>
</svg>